# xmcd
#
# Track frame offsets:
#	150
#	18497
#	34310
#	54810
#	74552
#	89817
#	110642
#	134722
#	152372
#	174000
#	191475
#	234530
#
# Disc length: 3354 seconds
#
# Revision: 2
# Processed by: cddbd v1.5.2PL0 Copyright (c) Steve Scherf et al.
# Submitted via: EasyCDDAExtractor 10.0.2.1
#
DISCID=a10d180c
DTITLE=Natalie Imbruglia - Left of the middle
DYEAR=1997
DGENRE=Pop
TTITLE0=Torn
TTITLE1=One more addiction
TTITLE2=Big mistake
TTITLE3=Leave me alone
TTITLE4=Intuition
TTITLE5=Smoke
TTITLE6=Pigeons and crumbs
TTITLE7=Don't you think?
TTITLE8=Impressed
TTITLE9=Wishing I was there
TTITLE10=City
TTITLE11=Left of the middle
EXTD=
EXTT0=
EXTT1=
EXTT2=
EXTT3=
EXTT4=
EXTT5=
EXTT6=
EXTT7=
EXTT8=
EXTT9=
EXTT10=
EXTT11=
PLAYORDER=
